<svg xmlns="http://www.w3.org/2000/svg" viewBox="0 0 33.4 33.4"><g id="レイヤー_2" data-name="レイヤー 2"><g id="レイヤー_1-2" data-name="レイヤー 1"><path d="M20.64,23.89a.25.25,0,0,0-.38,0,13.13,13.13,0,0,1-3.77,1.72A12.79,12.79,0,0,1,11.8,26a13.07,13.07,0,0,1-6-2.16,12.87,12.87,0,0,1-3.95-4.16A12.64,12.64,0,0,1,.35,16,12.69,12.69,0,0,1,0,13.05a12.94,12.94,0,0,1,.35-3,12.77,12.77,0,0,1,4.1-6.86,12.47,12.47,0,0,1,4-2.41A14.52,14.52,0,0,1,11.87.06a12.52,12.52,0,0,1,3.18.1,12.77,12.77,0,0,1,5.57,2.29,13.09,13.09,0,0,1,3.67,4A13.21,13.21,0,0,1,26,13.54a13,13,0,0,1-.87,4.17,12.5,12.5,0,0,1-1.35,2.59.21.21,0,0,0,.05.32l2.85,2.85,6,5.94a2.3,2.3,0,0,1-1,3.91,2.26,2.26,0,0,1-2.28-.69ZM1.84,19.12l-.06-.05L1.73,19l0-.08,0,0,.07.06.05.1.05.05,0,.06h0ZM2,18.61l.05.05,0,0,0,0L2,18.61H2ZM13,3.11A9.92,9.92,0,1,0,23,13,9.92,9.92,0,0,0,13,3.11ZM2.49,18.78l0,0-.16-.2,0,0Z"/></g></g></svg>